<svg width="33" height="32" viewBox="0 0 33 32" fill="none" xmlns="http://www.w3.org/2000/svg">
<g clip-path="url(#clip0_3_270)">
<path d="M14.7965 6.66667V21.56L8.28984 15.0533C7.76984 14.5333 6.91651 14.5333 6.39651 15.0533C5.87651 15.5733 5.87651 16.4133 6.39651 16.9333L15.1832 25.72C15.7032 26.24 16.5432 26.24 17.0632 25.72L25.8632 16.9467C26.3832 16.4267 26.3832 15.5867 25.8632 15.0667C25.3432 14.5467 24.5032 14.5467 23.9832 15.0667L17.4632 21.56V6.66667C17.4632 5.93333 16.8632 5.33333 16.1298 5.33333C15.3965 5.33333 14.7965 5.93333 14.7965 6.66667Z" fill="black"/>
</g>
<defs>
<clipPath id="clip0_3_270">
<rect width="32" height="32" fill="white" transform="translate(32.1299 32) rotate(-180)"/>
</clipPath>
</defs>
</svg>
