<svg width="54" height="54" viewBox="0 0 54 54" fill="none" xmlns="http://www.w3.org/2000/svg">
<path d="M32.468 34.7072L26.8701 29.1092L21.2722 34.7072C20.6564 35.3229 19.6488 35.3229 19.033 34.7072C18.4172 34.0914 18.4172 33.0838 19.033 32.468L24.6309 26.8701L19.033 21.2721C18.4172 20.6564 18.4172 19.6487 19.033 19.033C19.6488 18.4172 20.6564 18.4172 21.2722 19.033L26.8701 24.6309L32.468 19.033C33.0838 18.4172 34.0914 18.4172 34.7072 19.033C35.323 19.6487 35.323 20.6564 34.7072 21.2721L29.1093 26.8701L34.7072 32.468C35.323 33.0838 35.323 34.0914 34.7072 34.7072C34.0914 35.3229 33.0838 35.3229 32.468 34.7072Z" fill="#321850"/>
</svg>
