<svg width="46" height="46" viewBox="0 0 46 46" fill="none" xmlns="http://www.w3.org/2000/svg">
<mask id="mask0_3_253" style="mask-type:alpha" maskUnits="userSpaceOnUse" x="0" y="0" width="46" height="46">
<rect width="46" height="46" fill="#D9D9D9"/>
</mask>
<g mask="url(#mask0_3_253)">
<path d="M23 40.25L20.2209 37.7583C16.9945 34.8514 14.3271 32.3438 12.2188 30.2354C10.1105 28.1271 8.43337 26.2341 7.18754 24.5563C5.94171 22.8799 5.07154 21.3389 4.57704 19.9333C4.08126 18.5278 3.83337 17.0903 3.83337 15.6208C3.83337 12.6181 4.83962 10.1104 6.85212 8.09792C8.86462 6.08542 11.3723 5.07917 14.375 5.07917C16.0362 5.07917 17.6174 5.43056 19.1188 6.13334C20.6202 6.83611 21.9139 7.82639 23 9.10417C24.0862 7.82639 25.3799 6.83611 26.8813 6.13334C28.3827 5.43056 29.9639 5.07917 31.625 5.07917C34.6278 5.07917 37.1355 6.08542 39.148 8.09792C41.1605 10.1104 42.1667 12.6181 42.1667 15.6208C42.1667 17.0903 41.9195 18.5278 41.425 19.9333C40.9292 21.3389 40.0584 22.8799 38.8125 24.5563C37.5667 26.2341 35.8896 28.1271 33.7813 30.2354C31.673 32.3438 29.0056 34.8514 25.7792 37.7583L23 40.25Z" fill="white"/>
</g>
</svg>
